<svg viewBox="0 0 800 500" xmlns="http://www.w3.org/2000/svg">
  <!-- Background -->
  <rect width="800" height="500" fill="#f8fafc" rx="6" ry="6"/>
  
  <!-- Left Sidebar -->
  <rect x="0" y="0" width="180" height="500" fill="#1e293b" rx="6" ry="6"/>
  
  <!-- Sidebar Logo Area -->
  <rect x="20" y="20" width="140" height="40" fill="#334155" rx="4" ry="4"/>
  <text x="40" y="45" font-family="Arial" font-size="16" font-weight="bold" fill="white">MCPToolkits</text>
  
  <!-- Sidebar Menu Items -->
  <rect x="20" y="80" width="140" height="36" fill="#4f46e5" rx="4" ry="4"/>
  <text x="45" y="103" font-family="Arial" font-size="14" fill="white">Dashboard</text>
  <circle cx="32" cy="98" r="4" fill="white"/>
  
  <rect x="20" y="126" width="140" height="36" fill="#334155" rx="4" ry="4"/>
  <text x="45" y="149" font-family="Arial" font-size="14" fill="white">Servers</text>
  <circle cx="32" cy="144" r="4" fill="white"/>
  
  <rect x="20" y="172" width="140" height="36" fill="#334155" rx="4" ry="4"/>
  <text x="45" y="195" font-family="Arial" font-size="14" fill="white">Configurations</text>
  <circle cx="32" cy="190" r="4" fill="white"/>
  
  <rect x="20" y="218" width="140" height="36" fill="#334155" rx="4" ry="4"/>
  <text x="45" y="241" font-family="Arial" font-size="14" fill="white">Analytics</text>
  <circle cx="32" cy="236" r="4" fill="white"/>
  
  <rect x="20" y="264" width="140" height="36" fill="#334155" rx="4" ry="4"/>
  <text x="45" y="287" font-family="Arial" font-size="14" fill="white">Settings</text>
  <circle cx="32" cy="282" r="4" fill="white"/>
  
  <!-- Main Content Header -->
  <rect x="200" y="20" width="580" height="60" fill="white" rx="4" ry="4" stroke="#e2e8f0" stroke-width="1"/>
  <text x="220" y="55" font-family="Arial" font-size="18" font-weight="bold" fill="#1e293b">MCP Server Dashboard</text>
  
  <!-- Stats Cards -->
  <rect x="200" y="100" width="180" height="100" fill="white" rx="4" ry="4" stroke="#e2e8f0" stroke-width="1"/>
  <text x="220" y="130" font-family="Arial" font-size="14" fill="#64748b">Active Servers</text>
  <text x="220" y="170" font-family="Arial" font-size="28" font-weight="bold" fill="#4f46e5">24</text>
  
  <rect x="400" y="100" width="180" height="100" fill="white" rx="4" ry="4" stroke="#e2e8f0" stroke-width="1"/>
  <text x="420" y="130" font-family="Arial" font-size="14" fill="#64748b">Sync Status</text>
  <text x="420" y="170" font-family="Arial" font-size="28" font-weight="bold" fill="#16a34a">98%</text>
  
  <rect x="600" y="100" width="180" height="100" fill="white" rx="4" ry="4" stroke="#e2e8f0" stroke-width="1"/>
  <text x="620" y="130" font-family="Arial" font-size="14" fill="#64748b">Issues</text>
  <text x="620" y="170" font-family="Arial" font-size="28" font-weight="bold" fill="#ef4444">3</text>
  
  <!-- Server Table -->
  <rect x="200" y="220" width="580" height="260" fill="white" rx="4" ry="4" stroke="#e2e8f0" stroke-width="1"/>
  
  <!-- Table Header -->
  <rect x="200" y="220" width="580" height="40" fill="#f1f5f9" rx="4" ry="4"/>
  <text x="220" y="245" font-family="Arial" font-size="14" font-weight="bold" fill="#475569">Server Name</text>
  <text x="400" y="245" font-family="Arial" font-size="14" font-weight="bold" fill="#475569">Status</text>
  <text x="550" y="245" font-family="Arial" font-size="14" font-weight="bold" fill="#475569">Last Sync</text>
  <text x="700" y="245" font-family="Arial" font-size="14" font-weight="bold" fill="#475569">Actions</text>
  
  <!-- Table Rows -->
  <line x1="200" y1="260" x2="780" y2="260" stroke="#e2e8f0" stroke-width="1"/>
  <text x="220" y="285" font-family="Arial" font-size="14" fill="#1e293b">MCP-Production-01</text>
  <rect x="400" y="270" width="70" height="24" fill="#dcfce7" rx="12" ry="12"/>
  <text x="416" y="286" font-family="Arial" font-size="12" fill="#16a34a">Active</text>
  <text x="550" y="285" font-family="Arial" font-size="14" fill="#1e293b">5 mins ago</text>
  <rect x="700" y="270" width="60" height="24" fill="#e0e7ff" rx="4" ry="4"/>
  <text x="712" y="286" font-family="Arial" font-size="12" fill="#4f46e5">Edit</text>
  
  <line x1="200" y1="300" x2="780" y2="300" stroke="#e2e8f0" stroke-width="1"/>
  <text x="220" y="325" font-family="Arial" font-size="14" fill="#1e293b">MCP-Staging-02</text>
  <rect x="400" y="310" width="70" height="24" fill="#dcfce7" rx="12" ry="12"/>
  <text x="416" y="326" font-family="Arial" font-size="12" fill="#16a34a">Active</text>
  <text x="550" y="325" font-family="Arial" font-size="14" fill="#1e293b">10 mins ago</text>
  <rect x="700" y="310" width="60" height="24" fill="#e0e7ff" rx="4" ry="4"/>
  <text x="712" y="326" font-family="Arial" font-size="12" fill="#4f46e5">Edit</text>
  
  <line x1="200" y1="340" x2="780" y2="340" stroke="#e2e8f0" stroke-width="1"/>
  <text x="220" y="365" font-family="Arial" font-size="14" fill="#1e293b">MCP-Dev-03</text>
  <rect x="400" y="350" width="88" height="24" fill="#fee2e2" rx="12" ry="12"/>
  <text x="409" y="366" font-family="Arial" font-size="12" fill="#ef4444">Inactive</text>
  <text x="550" y="365" font-family="Arial" font-size="14" fill="#1e293b">1 hour ago</text>
  <rect x="700" y="350" width="60" height="24" fill="#e0e7ff" rx="4" ry="4"/>
  <text x="712" y="366" font-family="Arial" font-size="12" fill="#4f46e5">Edit</text>
  
  <line x1="200" y1="380" x2="780" y2="380" stroke="#e2e8f0" stroke-width="1"/>
  <text x="220" y="405" font-family="Arial" font-size="14" fill="#1e293b">MCP-Test-04</text>
  <rect x="400" y="390" width="88" height="24" fill="#fef3c7" rx="12" ry="12"/>
  <text x="412" y="406" font-family="Arial" font-size="12" fill="#d97706">Warning</text>
  <text x="550" y="405" font-family="Arial" font-size="14" fill="#1e293b">30 mins ago</text>
  <rect x="700" y="390" width="60" height="24" fill="#e0e7ff" rx="4" ry="4"/>
  <text x="712" y="406" font-family="Arial" font-size="12" fill="#4f46e5">Edit</text>
</svg>